<?xml version="1.0" encoding="utf-8"?>
<!-- Generator: Adobe Illustrator 22.0.1, SVG Export Plug-In . SVG Version: 6.00 Build 0)  -->
<svg version="1.1" id="Layer_1" xmlns="http://www.w3.org/2000/svg" xmlns:xlink="http://www.w3.org/1999/xlink" x="0px" y="0px"
	 viewBox="0 0 247 82.3" style="enable-background:new 0 0 247 82.3;" xml:space="preserve">
<style type="text/css">
	.st0{clip-path:url(#SVGID_2_);fill:#FEE600;}
	.st1{clip-path:url(#SVGID_2_);fill:#075CA9;}
	.st2{fill:#075CA9;}
	.st3{fill:none;stroke:#075CA9;stroke-miterlimit:10;}
	.st4{fill:#0099D8;}
</style>
<g>
	<defs>
		<rect id="SVGID_1_" x="-0.8" y="0.3" width="328.7" height="84"/>
	</defs>
	<clipPath id="SVGID_2_">
		<use xlink:href="#SVGID_1_"  style="overflow:visible;"/>
	</clipPath>
	<path class="st0" d="M60.3,42.6L55,47.8c-1.5,1.5-4.1,1.6-5.9,0.4L43.4,44c-1.7-1.2-1.9-3.5-0.4-4.9l5.3-5.2
		c1.5-1.5,4.1-1.7,5.9-0.4l5.7,4.1C61.7,38.9,61.9,41.1,60.3,42.6"/>
	<path class="st1" d="M34.8,16c-1,0.5-1,1.6,0.1,2.4c0.1,0.1,0.2,0.1,0.3,0.2c0.2,0.1,0.4,0.2,0.5,0.3c2.3,1.1,4.6,2.2,6.8,3.4
		c1.9,1,3.1,1.8,4.7,2.9c4.3,3,8.6,6,12.8,9c1.1,0.8,2.9,1,4,0.4c1.1-0.5,1-1.6-0.1-2.3c-4.2-3-8.5-6-12.8-9
		c-0.8-0.5-1.6-1.1-2.4-1.7c-2.4-1.5-5.5-2.9-8.3-4.3c-0.7-0.3-1.3-0.6-1.9-0.9c-0.7-0.4-1.5-0.6-2.3-0.6
		C35.7,15.7,35.2,15.8,34.8,16"/>
	<path class="st1" d="M40.9,11.8c-1,0.5-1,1.6,0.1,2.4c0.1,0.1,0.2,0.1,0.3,0.2c0.2,0.1,0.3,0.2,0.5,0.2c2.3,1.1,4.6,2.3,6.8,3.4
		c1.9,1,3.2,1.9,4.7,2.9c4.3,3,8.6,6,12.8,9c1.1,0.8,2.9,1,4,0.4c1.1-0.5,1-1.6-0.1-2.3c-4.3-3-8.5-6-12.8-9
		c-0.8-0.5-1.7-1.1-2.5-1.7c-2.4-1.5-5.6-2.9-8.2-4.3c-0.7-0.3-1.3-0.6-1.9-0.9c-0.7-0.4-1.5-0.6-2.3-0.6
		C41.8,11.5,41.3,11.6,40.9,11.8"/>
	<path class="st1" d="M47.9,7.4c-1,0.5-1,1.6,0.1,2.3c0.1,0.1,0.2,0.1,0.3,0.2c0.2,0.1,0.4,0.2,0.5,0.3c2.3,1.1,4.6,2.3,6.8,3.4
		c1.9,0.9,3.2,1.8,4.7,2.9c4.3,3,8.6,6,12.8,9c1.1,0.8,2.9,1,4,0.5c1.1-0.5,1-1.6-0.1-2.4c-4.3-2.9-8.5-5.9-12.8-9
		c-0.8-0.5-1.7-1.1-2.5-1.7c-2.4-1.5-5.5-2.9-8.2-4.3c-0.7-0.3-1.3-0.5-1.9-0.9C51,7.3,50.2,7,49.4,7C48.8,7,48.3,7.2,47.9,7.4"/>
	<path class="st1" d="M44.4,28.6c-4.5,3.6-9,7.2-13.5,10.7c-0.9,0.7-1.7,1.4-2.6,2.1c-2.3,2.1-4.8,5-7.1,7.4c-0.5,0.6-1,1.1-1.5,1.7
		c-1,1-1.6,2.7-1.4,3.9c0.3,1.4,1.4,1.6,2.6,0.7c0.1-0.1,0.2-0.1,0.3-0.2c0.1-0.2,0.3-0.3,0.4-0.5c1.8-2.1,3.8-4.1,5.7-6.2
		c1.6-1.6,2.9-2.7,4.5-4c4.5-3.6,9-7.2,13.5-10.8c1.2-0.9,2-2.8,1.7-4.1c-0.2-0.8-0.7-1.2-1.3-1.2C45.3,28.1,44.9,28.2,44.4,28.6"/>
	<path class="st1" d="M37.8,24.1c-4.5,3.5-8.9,7-13.3,10.5c-0.9,0.7-1.7,1.4-2.6,2c-2.3,2.1-4.8,4.9-7,7.3c-0.5,0.6-1,1.1-1.5,1.7
		c-1,1-1.6,2.6-1.4,3.9c0.3,1.3,1.4,1.6,2.6,0.7c0.1-0.1,0.2-0.1,0.2-0.2c0.2-0.1,0.3-0.3,0.4-0.4c1.8-2.1,3.8-4.1,5.6-6.1
		c1.6-1.7,2.9-2.7,4.5-4c4.4-3.5,8.9-7,13.3-10.6c1.2-0.9,1.9-2.7,1.7-4c-0.2-0.8-0.7-1.2-1.3-1.2C38.6,23.6,38.2,23.8,37.8,24.1"/>
	<path class="st1" d="M30.8,20.2c-4,3.2-8,6.3-12,9.5c-0.8,0.6-1.5,1.2-2.3,1.8c-2.1,1.9-4.2,4.4-6.3,6.5c-0.5,0.5-0.9,1-1.4,1.5
		C8,40.4,7.5,42,7.6,43.1c0.2,1.1,1.3,1.4,2.3,0.6c0.1-0.1,0.2-0.1,0.2-0.2c0.1-0.1,0.3-0.3,0.4-0.4c1.7-1.8,3.4-3.6,5.1-5.4
		c1.4-1.5,2.6-2.4,4-3.6c4-3.2,8-6.3,12-9.5c1-0.8,1.7-2.4,1.5-3.6c-0.1-0.7-0.6-1.1-1.1-1.1C31.6,19.7,31.2,19.8,30.8,20.2"/>
	<path class="st1" d="M24.5,56.6c-1.2,0.5-1.2,1.6-0.1,2.6c0.1,0.1,0.2,0.1,0.3,0.2v0.1c0.2,0.1,0.4,0.2,0.5,0.3
		c2.4,1.3,4.8,2.7,7.2,4.1c1.9,1.1,3.2,2.1,4.8,3.4c4.4,3.5,8.9,7,13.3,10.4c1.1,0.9,3,1.3,4.2,0.8c1.2-0.5,1.2-1.7,0.1-2.6
		c-4.4-3.4-8.8-6.9-13.2-10.4c-0.9-0.7-1.7-1.4-2.5-2c-2.6-1.8-5.8-3.5-8.6-5.1c-0.7-0.4-1.4-0.7-2-1.1c-0.7-0.5-1.7-0.8-2.6-0.8
		C25.4,56.3,24.9,56.4,24.5,56.6"/>
	<path class="st1" d="M29.4,50.7c-1.3,0.5-1.3,1.7-0.1,2.7c0.1,0.1,0.2,0.2,0.3,0.2c0.2,0.1,0.4,0.2,0.6,0.3
		c2.5,1.4,4.9,2.8,7.4,4.2c2,1.2,3.4,2.2,5.1,3.6c4.6,3.6,9.2,7.2,13.8,10.9c1.2,0.9,3.2,1.3,4.4,0.8c1.3-0.5,1.3-1.7,0.1-2.7
		c-4.6-3.6-9.2-7.2-13.8-10.9c-0.9-0.7-1.8-1.4-2.7-2.1c-2.6-1.9-6-3.6-8.9-5.4c-0.7-0.3-1.4-0.7-2.1-1.1c-0.8-0.5-1.8-0.8-2.8-0.8
		C30.3,50.5,29.8,50.6,29.4,50.7"/>
	<path class="st1" d="M35,45.2c-1.3,0.5-1.3,1.8-0.1,2.8c0.1,0.1,0.2,0.2,0.3,0.2h0.1c0.2,0.1,0.3,0.2,0.5,0.3
		c2.6,1.4,5.1,2.9,7.7,4.4c2.1,1.2,3.5,2.3,5.2,3.7c4.7,3.7,9.4,7.4,14.1,11.1c1.3,1,3.3,1.4,4.6,0.8c1.3-0.5,1.3-1.8,0.1-2.8
		C62.8,62,58,58.3,53.4,54.5c-0.9-0.7-1.8-1.4-2.7-2.2c-2.7-1.9-6.2-3.7-9.3-5.5c-0.7-0.3-1.4-0.7-2.1-1.1c-0.8-0.5-1.9-0.8-2.9-0.8
		C35.9,44.9,35.4,45,35,45.2"/>
	<path class="st1" d="M90.8,38.9c-3.9,3.4-7.7,6.9-11.6,10.3c-0.8,0.7-1.5,1.3-2.2,2c-2,2-4.1,4.7-6,7c-0.4,0.5-0.9,1-1.2,1.6
		c-0.9,0.9-1.4,2.4-1.1,3.5c0.3,1.1,1.3,1.4,2.3,0.5c0.1-0.1,0.2-0.2,0.2-0.2c0.1-0.2,0.3-0.3,0.4-0.5c1.6-2,3.2-3.9,4.8-5.8
		c1.3-1.6,2.4-2.6,3.9-3.9c3.9-3.4,7.7-6.9,11.6-10.3c1-0.9,1.6-2.6,1.4-3.8c-0.2-0.7-0.6-1-1.1-1C91.6,38.3,91.2,38.5,90.8,38.9"/>
	<path class="st1" d="M85.1,33.8c-3.9,3.4-7.8,6.9-11.6,10.3c-0.8,0.7-1.5,1.4-2.2,2c-2,2-4.1,4.7-6.1,7c-0.4,0.5-0.8,1.1-1.3,1.6
		c-0.9,0.9-1.4,2.4-1.1,3.5c0.3,1.1,1.3,1.4,2.3,0.4c0.1-0.1,0.1-0.1,0.2-0.2c0.1-0.1,0.2-0.3,0.3-0.4c1.6-2,3.3-3.9,4.9-5.8
		c1.3-1.6,2.4-2.6,3.9-3.9c3.9-3.4,7.8-6.9,11.6-10.3c1-0.9,1.6-2.6,1.4-3.7c-0.2-0.7-0.6-1.1-1.1-1.1C86,33.2,85.5,33.4,85.1,33.8"
		/>
	<path class="st1" d="M79.3,28.8c-3.9,3.4-7.8,6.9-11.6,10.3c-0.8,0.7-1.5,1.4-2.2,2c-2.1,2-4.1,4.7-6,7c-0.4,0.5-0.9,1.1-1.3,1.6
		c-0.9,0.9-1.4,2.4-1.1,3.5c0.3,1.2,1.4,1.4,2.3,0.5c0.1-0.1,0.2-0.2,0.2-0.2c0.2-0.2,0.3-0.3,0.4-0.5c1.6-2,3.2-3.9,4.8-5.8
		c1.4-1.6,2.5-2.6,3.9-3.9c3.9-3.4,7.8-6.9,11.6-10.3c1-0.9,1.6-2.6,1.4-3.7c-0.2-0.7-0.6-1-1.1-1C80.1,28.2,79.7,28.4,79.3,28.8"/>
</g>
<g>
	<path class="st2" d="M104.8,36.4V25.9h-4.1v-1.3h9.5v1.3h-4.1v10.4H104.8z"/>
	<path class="st2" d="M109,36.4l5.4-12h0.2l5.4,12h-1.5l-1.3-3h-5.5l-1.3,3H109z M112.2,32.3h4.5l-2.2-5.1L112.2,32.3z"/>
	<path class="st2" d="M121.3,36.4V24.7h2.4c1.6,0,2.8,0.3,3.7,0.9c0.8,0.6,1.3,1.4,1.3,2.5c0,0.8-0.3,1.6-0.8,2.2
		c-0.5,0.6-1.3,1-2.2,1.1l4.2,5h-1.7l-4-4.8h-1.4v4.8H121.3z M122.6,30.5h1.2c1.1,0,2-0.2,2.6-0.6c0.6-0.4,0.9-1,0.9-1.8
		c0-0.8-0.3-1.4-0.9-1.7c-0.6-0.4-1.5-0.6-2.8-0.6h-0.9V30.5z"/>
	<path class="st2" d="M134.2,36.4V25.9h-4.1v-1.3h9.5v1.3h-4.1v10.4H134.2z"/>
	<path class="st2" d="M142.5,24.7v6.8c0,1.3,0.3,2.3,0.8,2.9c0.5,0.7,1.4,1,2.4,1c1.1,0,1.9-0.3,2.4-1c0.5-0.7,0.8-1.7,0.8-3v-6.8
		h1.2v7c0,1.6-0.4,2.8-1.2,3.7s-1.9,1.3-3.3,1.3c-1.5,0-2.6-0.4-3.4-1.3c-0.8-0.9-1.2-2.1-1.2-3.7v-7H142.5z"/>
</g>
<g>
	<path class="st2" d="M155.9,36.4V24.7h2.7v5.1l3.8-5.1h3.3l-4.3,5.6l4.7,6.1h-3.3l-4.1-5.4v5.4H155.9z"/>
	<path class="st2" d="M166.7,36.4V24.7h2.7V29h4.4v-4.3h2.7v11.7h-2.7v-4.9h-4.4v4.9H166.7z"/>
	<path class="st2" d="M179,36.4V24.7h2.7v5.1l3.8-5.1h3.3l-4.3,5.6l4.7,6.1h-3.3l-4.1-5.4v5.4H179z"/>
</g>
<line class="st3" x1="101" y1="41.1" x2="236" y2="41.1"/>
<g>
	<path class="st4" d="M102.5,61.6V47.3h2.5v14.3H102.5z"/>
	<path class="st4" d="M108.6,61.6V47.3h2.5v6.4l6.1-6.4h2.9l-6.5,6.8l7.2,7.4h-3.2l-6.4-6.7v6.7H108.6z"/>
	<path class="st4" d="M127,49.5v12.1h-2.5V49.5h-4.8v-2.2h12.1v2.2H127z"/>
	<path class="st4" d="M138.4,54.4c0-0.9,0.1-1.7,0.4-2.5c0.2-0.8,0.6-1.5,1.1-2.2c0.7-0.9,1.5-1.6,2.5-2.1c1-0.5,2-0.8,3.1-0.8
		c0.9,0,1.9,0.2,2.7,0.6c0.9,0.4,1.6,0.9,2.3,1.6c0.7,0.7,1.2,1.5,1.5,2.5c0.4,0.9,0.5,1.9,0.5,3c0,1.1-0.2,2-0.5,3
		c-0.4,0.9-0.9,1.7-1.5,2.4c-0.7,0.7-1.4,1.2-2.3,1.6s-1.8,0.6-2.7,0.6c-0.9,0-1.8-0.2-2.7-0.6c-0.9-0.4-1.6-0.9-2.3-1.6
		c-0.7-0.7-1.2-1.5-1.6-2.5S138.4,55.5,138.4,54.4z M141,54.4c0,1.5,0.4,2.7,1.3,3.7c0.9,1,1.9,1.5,3.2,1.5c1.3,0,2.4-0.5,3.2-1.5
		c0.9-1,1.3-2.2,1.3-3.7c0-1.5-0.4-2.7-1.3-3.7c-0.9-1-1.9-1.5-3.2-1.5c-1.3,0-2.4,0.5-3.2,1.5C141.4,51.7,141,52.9,141,54.4z"/>
	<path class="st4" d="M154.3,58.4c0.8,0.5,1.5,0.9,2.1,1.1c0.6,0.2,1.3,0.4,1.8,0.4c0.7,0,1.4-0.2,1.8-0.6c0.5-0.4,0.7-0.9,0.7-1.4
		c0-0.5-0.2-0.9-0.5-1.3s-0.9-0.8-1.6-1.3l-1.1-0.6c-1.1-0.6-1.9-1.3-2.3-1.9c-0.5-0.6-0.7-1.3-0.7-2.1c0-1.1,0.4-2,1.2-2.7
		c0.8-0.7,1.8-1,3.1-1c0.6,0,1.2,0.1,1.8,0.2c0.6,0.1,1.2,0.4,1.8,0.7l-0.1,2.3c-0.7-0.4-1.3-0.7-1.9-0.9s-1-0.3-1.5-0.3
		c-0.7,0-1.2,0.1-1.5,0.4c-0.4,0.3-0.6,0.7-0.6,1.2c0,0.4,0.1,0.8,0.4,1.1c0.3,0.3,0.8,0.7,1.5,1.1l1,0.6c1.2,0.7,2,1.4,2.5,2.1
		c0.5,0.7,0.8,1.5,0.8,2.4c0,1.3-0.4,2.3-1.3,3.1c-0.9,0.8-2.1,1.2-3.6,1.2c-0.7,0-1.3-0.1-2-0.2s-1.3-0.4-1.9-0.6L154.3,58.4z"/>
	<path class="st4" d="M166.4,61.6h-2.5l7-14.7h0.2l6.8,14.7h-2.6l-1.2-2.5h-6.5L166.4,61.6z M168.5,57h4.7l-2.3-5.3L168.5,57z"/>
	<path class="st4" d="M179.3,61.6V47.3h2.5v6.4l6.1-6.4h2.9l-6.5,6.8l7.2,7.4h-3.2l-6.4-6.7v6.7H179.3z"/>
	<path class="st4" d="M191,54.4c0-0.9,0.1-1.7,0.4-2.5c0.2-0.8,0.6-1.5,1.1-2.2c0.7-0.9,1.5-1.6,2.5-2.1c1-0.5,2-0.8,3.1-0.8
		c0.9,0,1.9,0.2,2.7,0.6c0.9,0.4,1.6,0.9,2.3,1.6c0.7,0.7,1.2,1.5,1.5,2.5c0.4,0.9,0.5,1.9,0.5,3c0,1.1-0.2,2-0.5,3
		c-0.4,0.9-0.9,1.7-1.5,2.4c-0.7,0.7-1.4,1.2-2.3,1.6s-1.8,0.6-2.7,0.6c-0.9,0-1.8-0.2-2.7-0.6c-0.9-0.4-1.6-0.9-2.3-1.6
		c-0.7-0.7-1.2-1.5-1.6-2.5S191,55.5,191,54.4z M193.6,54.4c0,1.5,0.4,2.7,1.3,3.7c0.9,1,1.9,1.5,3.2,1.5c1.3,0,2.4-0.5,3.2-1.5
		c0.9-1,1.3-2.2,1.3-3.7c0-1.5-0.4-2.7-1.3-3.7c-0.9-1-1.9-1.5-3.2-1.5c-1.3,0-2.4,0.5-3.2,1.5C194,51.7,193.6,52.9,193.6,54.4z"/>
	<path class="st4" d="M207.8,61.6V46.8h0.3l9.2,9.5v-9.1h2.4V62h-0.3l-9.2-9.5v9.1H207.8z"/>
	<path class="st4" d="M223.2,61.6V47.3h3.4c2.7,0,4.8,0.6,6.3,1.9c1.5,1.3,2.3,3,2.3,5.2c0,1.3-0.3,2.5-0.9,3.5
		c-0.6,1-1.5,1.9-2.6,2.5c-0.6,0.4-1.4,0.7-2.1,0.8c-0.8,0.2-1.7,0.3-2.9,0.3H223.2z M225.7,59.3h1.3c1.8,0,3.2-0.4,4.2-1.3
		c1-0.9,1.5-2.1,1.5-3.6c0-1.5-0.5-2.7-1.5-3.6c-1-0.9-2.4-1.3-4.2-1.3h-1.3V59.3z"/>
</g>
</svg>
